<?xml version="1.0" encoding="utf-8" standalone="no"?>
<!DOCTYPE svg PUBLIC "-//W3C//DTD SVG 1.1//EN"
  "http://www.w3.org/Graphics/SVG/1.1/DTD/svg11.dtd">
<svg xmlns:xlink="http://www.w3.org/1999/xlink" width="216pt" height="216pt" viewBox="0 0 216 216" xmlns="http://www.w3.org/2000/svg" version="1.1">
 <metadata>
  <rdf:RDF xmlns:dc="http://purl.org/dc/elements/1.1/" xmlns:cc="http://creativecommons.org/ns#" xmlns:rdf="http://www.w3.org/1999/02/22-rdf-syntax-ns#">
   <cc:Work>
    <dc:type rdf:resource="http://purl.org/dc/dcmitype/StillImage"/>
    <dc:date>2025-01-14T08:35:01.337439</dc:date>
    <dc:format>image/svg+xml</dc:format>
    <dc:creator>
     <cc:Agent>
      <dc:title>Matplotlib v3.9.2, https://matplotlib.org/</dc:title>
     </cc:Agent>
    </dc:creator>
   </cc:Work>
  </rdf:RDF>
 </metadata>
 <defs>
  <style type="text/css">*{stroke-linejoin: round; stroke-linecap: butt}</style>
 </defs>
 <g id="figure_1">
  <g id="patch_1">
   <path d="M 0 216 
L 216 216 
L 216 0 
L 0 0 
z
" style="fill: #ffffff"/>
  </g>
  <g id="axes_1">
   <g id="matplotlib.axis_1">
    <g id="xtick_1"/>
    <g id="xtick_2"/>
    <g id="xtick_3"/>
    <g id="xtick_4"/>
    <g id="xtick_5"/>
   </g>
   <g id="matplotlib.axis_2">
    <g id="ytick_1"/>
    <g id="ytick_2"/>
    <g id="ytick_3"/>
    <g id="ytick_4"/>
    <g id="ytick_5"/>
   </g>
   <g id="line2d_1">
    <path d="M 34.609091 109.08 
L 37.120405 71.623325 
L 38.395087 55.833065 
L 39.403417 45.892963 
L 40.240522 39.69775 
L 40.925426 36.159459 
L 41.477154 34.364895 
L 41.895706 33.648402 
L 42.200108 33.480583 
L 42.466459 33.578493 
L 42.770861 33.969709 
L 43.151363 34.875286 
L 43.626991 36.649689 
L 44.216769 39.81619 
L 44.920698 44.932628 
L 45.757803 52.766009 
L 46.785158 64.643435 
L 48.097891 82.635222 
L 50.361878 117.375914 
L 52.435615 147.818771 
L 53.691272 163.163327 
L 54.680577 172.751623 
L 55.498657 178.695918 
L 56.164535 182.078317 
L 56.697238 183.795105 
L 57.115791 184.511598 
L 57.420192 184.679417 
L 57.686544 184.581507 
L 57.990945 184.190291 
L 58.371448 183.284714 
L 58.847075 181.510311 
L 59.436853 178.34381 
L 60.140782 173.227372 
L 60.977887 165.393991 
L 62.005243 153.516565 
L 63.317975 135.524778 
L 65.581963 100.784086 
L 67.655699 70.341229 
L 68.911356 54.996673 
L 69.900661 45.408377 
L 70.718741 39.464082 
L 71.38462 36.081683 
L 71.917323 34.364895 
L 72.335875 33.648402 
L 72.640277 33.480583 
L 72.906628 33.578493 
L 73.21103 33.969709 
L 73.591532 34.875286 
L 74.06716 36.649689 
L 74.656938 39.81619 
L 75.360867 44.932628 
L 76.197971 52.766009 
L 77.225327 64.643435 
L 78.538059 82.635222 
L 80.802047 117.375914 
L 82.875783 147.818771 
L 84.13144 163.163327 
L 85.120746 172.751623 
L 85.938825 178.695918 
L 86.604704 182.078317 
L 87.137407 183.795105 
L 87.555959 184.511598 
L 87.860361 184.679417 
L 88.126712 184.581507 
L 88.431114 184.190291 
L 88.811616 183.284714 
L 89.287244 181.510311 
L 89.877022 178.34381 
L 90.580951 173.227372 
L 91.418056 165.393991 
L 92.445411 153.516565 
L 93.758144 135.524778 
L 96.022131 100.784086 
L 98.095868 70.341229 
L 99.351525 54.996673 
L 100.34083 45.408377 
L 101.15891 39.464082 
L 101.824788 36.081683 
L 102.357491 34.364895 
L 102.776044 33.648402 
L 103.080445 33.480583 
L 103.346797 33.578493 
L 103.651198 33.969709 
L 104.031701 34.875286 
L 104.507328 36.649689 
L 105.097106 39.81619 
L 105.801035 44.932628 
L 106.63814 52.766009 
L 107.665496 64.643435 
L 108.978228 82.635222 
L 111.242216 117.375914 
L 113.315952 147.818771 
L 114.571609 163.163327 
L 115.560914 172.751623 
L 116.378994 178.695918 
L 117.044873 182.078317 
L 117.577576 183.795105 
L 117.996128 184.511598 
L 118.30053 184.679417 
L 118.566881 184.581507 
L 118.871283 184.190291 
L 119.251785 183.284714 
L 119.727413 181.510311 
L 120.317191 178.34381 
L 121.02112 173.227372 
L 121.858224 165.393991 
L 122.88558 153.516565 
L 124.198312 135.524778 
L 126.4623 100.784086 
L 128.536036 70.341229 
L 129.791693 54.996673 
L 130.780999 45.408377 
L 131.599078 39.464082 
L 132.264957 36.081683 
L 132.79766 34.364895 
L 133.216212 33.648402 
L 133.520614 33.480583 
L 133.786965 33.578493 
L 134.091367 33.969709 
L 134.471869 34.875286 
L 134.947497 36.649689 
L 135.537275 39.81619 
L 136.241204 44.932628 
L 137.078309 52.766009 
L 138.105664 64.643435 
L 139.418397 82.635222 
L 141.682384 117.375914 
L 143.756121 147.818771 
L 145.011778 163.163327 
L 146.001083 172.751623 
L 146.819163 178.695918 
L 147.485041 182.078317 
L 148.017744 183.795105 
L 148.436297 184.511598 
L 148.740698 184.679417 
L 149.00705 184.581507 
L 149.311451 184.190291 
L 149.691954 183.284714 
L 150.167581 181.510311 
L 150.757359 178.34381 
L 151.461288 173.227372 
L 152.298393 165.393991 
L 153.325749 153.516565 
L 154.638481 135.524778 
L 156.902468 100.784086 
L 158.976205 70.341229 
L 160.231862 54.996673 
L 161.221167 45.408377 
L 162.039247 39.464082 
L 162.705126 36.081683 
L 163.237829 34.364895 
L 163.656381 33.648402 
L 163.960783 33.480583 
L 164.227134 33.578493 
L 164.531536 33.969709 
L 164.912038 34.875286 
L 165.387666 36.649689 
L 165.977444 39.81619 
L 166.681373 44.932628 
L 167.518477 52.766009 
L 168.545833 64.643435 
L 169.858565 82.635222 
L 172.122553 117.375914 
L 174.196289 147.818771 
L 175.451946 163.163327 
L 176.441252 172.751623 
L 177.259331 178.695918 
L 177.92521 182.078317 
L 178.457913 183.795105 
L 178.876465 184.511598 
L 179.180867 184.679417 
L 179.447218 184.581507 
L 179.75162 184.190291 
L 180.132122 183.284714 
L 180.60775 181.510311 
L 181.197528 178.34381 
L 181.901457 173.227372 
L 182.738562 165.393991 
L 183.765917 153.516565 
L 185.07865 135.524778 
L 186.790909 109.37688 
L 186.790909 109.37688 
" clip-path="url(#pca1384cc71)" style="fill: none; stroke: #1f77b4; stroke-width: 1.5; stroke-linecap: square"/>
   </g>
  </g>
 </g>
 <defs>
  <clipPath id="pca1384cc71">
   <rect x="27" y="25.92" width="167.4" height="166.32"/>
  </clipPath>
 </defs>
</svg>
