<?xml version="1.0" encoding="utf-8" ?>
<svg xmlns="http://www.w3.org/2000/svg" xmlns:cc="http://creativecommons.org/ns" xmlns:dc="http://purl.org/dc/elements/1.1/" xmlns:ev="http://www.w3.org/2001/xml-events" xmlns:inkscape="http://www.inkscape.org/namespaces/inkscape" xmlns:rdf="http://www.w3.org/1999/02/22-rdf-syntax-ns" xmlns:sodipodi="http://sodipodi.sourceforge.net/DTD/sodipodi-0.dtd" xmlns:xlink="http://www.w3.org/1999/xlink" baseProfile="tiny" height="7.62cm" version="1.2" viewBox="0 0 288.0 288.0" width="7.62cm">
  <metadata>
    <rdf:RDF>
      <cc:Work>
        <dc:format>image/svg+xml</dc:format>
        <dc:source>vpype read --attr stroke media/sine_wave.svg scaleto 3.0in 3.0in write media/sorted_sine.svg
</dc:source>
        <dc:date>2025-01-14T08:38:45.105495</dc:date>
      </cc:Work>
    </rdf:RDF>
  </metadata>
  <defs/>
  <g fill="none" id="layer1" inkscape:groupmode="layer" inkscape:label="1" stroke="#000000" stroke-width="1.3333" style="display:inline">
    <polygon points="-0.0,288.0 288.0,288.0 288.0,-0.0 -0.0,-0.0"/>
  </g>
  <g fill="none" id="layer2" inkscape:groupmode="layer" inkscape:label="2" stroke="#1f77b4" stroke-width="2.0" style="display:inline">
    <polyline points="46.1455,145.44 49.4939,95.4978 51.1934,74.4441 52.5379,61.1906 53.654,52.9303 54.5672,48.2126 55.3029,45.8199 55.8609,44.8645 56.2668,44.6408 56.6219,44.7713 57.0278,45.2929 57.5352,46.5004 58.1693,48.8663 58.9557,53.0883 59.8943,59.9102 61.0104,70.3547 62.3802,86.1912 64.1305,110.1803 67.1492,156.5012 69.9142,197.0917 71.5884,217.5511 72.9074,230.3355 73.9982,238.2612 74.886,242.7711 75.5963,245.0601 76.1544,246.0155 76.5603,246.2392 76.9154,246.1087 77.3213,245.5871 77.8286,244.3796 78.4628,242.0137 79.2491,237.7917 80.1877,230.9698 81.3038,220.5253 82.6737,204.6888 84.424,180.6997 87.4426,134.3788 90.2076,93.7883 91.8818,73.3289 93.2009,60.5445 94.2917,52.6188 95.1795,48.1089 95.8898,45.8199 96.4478,44.8645 96.8537,44.6408 97.2088,44.7713 97.6147,45.2929 98.122,46.5004 98.7562,48.8663 99.5426,53.0883 100.4812,59.9102 101.5973,70.3547 102.9671,86.1912 104.7174,110.1803 107.7361,156.5012 110.501,197.0917 112.1753,217.5511 113.4943,230.3355 114.5851,238.2612 115.4729,242.7711 116.1832,245.0601 116.7413,246.0155 117.1471,246.2392 117.5023,246.1087 117.9082,245.5871 118.4155,244.3796 119.0497,242.0137 119.836,237.7917 120.7746,230.9698 121.8907,220.5253 123.2605,204.6888 125.0109,180.6997 128.0295,134.3788 130.7945,93.7883 132.4687,73.3289 133.7878,60.5445 134.8785,52.6188 135.7664,48.1089 136.4767,45.8199 137.0347,44.8645 137.4406,44.6408 137.7957,44.7713 138.2016,45.2929 138.7089,46.5004 139.3431,48.8663 140.1295,53.0883 141.068,59.9102 142.1842,70.3547 143.554,86.1912 145.3043,110.1803 148.323,156.5012 151.0879,197.0917 152.7621,217.5511 154.0812,230.3355 155.172,238.2612 156.0598,242.7711 156.7701,245.0601 157.3282,246.0155 157.734,246.2392 158.0892,246.1087 158.495,245.5871 159.0024,244.3796 159.6366,242.0137 160.4229,237.7917 161.3615,230.9698 162.4776,220.5253 163.8474,204.6888 165.5977,180.6997 168.6164,134.3788 171.3814,93.7883 173.0556,73.3289 174.3747,60.5445 175.4654,52.6188 176.3533,48.1089 177.0635,45.8199 177.6216,44.8645 178.0275,44.6408 178.3826,44.7713 178.7885,45.2929 179.2958,46.5004 179.93,48.8663 180.7164,53.0883 181.6549,59.9102 182.7711,70.3547 184.1409,86.1912 185.8912,110.1803 188.9098,156.5012 191.6748,197.0917 193.349,217.5511 194.6681,230.3355 195.7589,238.2612 196.6467,242.7711 197.357,245.0601 197.9151,246.0155 198.3209,246.2392 198.6761,246.1087 199.0819,245.5871 199.5893,244.3796 200.2234,242.0137 201.0098,237.7917 201.9484,230.9698 203.0645,220.5253 204.4343,204.6888 206.1846,180.6997 209.2033,134.3788 211.9683,93.7883 213.6425,73.3289 214.9616,60.5445 216.0523,52.6188 216.9402,48.1089 217.6504,45.8199 218.2085,44.8645 218.6144,44.6408 218.9695,44.7713 219.3754,45.2929 219.8827,46.5004 220.5169,48.8663 221.3033,53.0883 222.2418,59.9102 223.358,70.3547 224.7278,86.1912 226.4781,110.1803 229.4967,156.5012 232.2617,197.0917 233.9359,217.5511 235.255,230.3355 236.3458,238.2612 237.2336,242.7711 237.9439,245.0601 238.502,246.0155 238.9078,246.2392 239.263,246.1087 239.6688,245.5871 240.1762,244.3796 240.8103,242.0137 241.5967,237.7917 242.5353,230.9698 243.6514,220.5253 245.0212,204.6888 246.7715,180.6997 249.0545,145.8358"/>
  </g>
</svg>
